<?xml version="1.0" encoding="utf-8"?>
<!-- Generator: Adobe Illustrator 24.2.1, SVG Export Plug-In . SVG Version: 6.00 Build 0)  -->
<svg version="1.1" id="Layer_1" xmlns="http://www.w3.org/2000/svg" xmlns:xlink="http://www.w3.org/1999/xlink" x="0px" y="0px"
	 width="606.70001px" height="263.29999px" viewBox="0 0 606.70001 263.29999"
	 style="enable-background:new 0 0 606.70001 263.29999;" xml:space="preserve">
<style type="text/css">
	.st0{fill:#231F20;}
</style>
<g>
	<g>
		<g>
			<path class="st0" d="M575.19989,218.18683c-4.33148,0.00269-8.66302,0.0047-12.99451,0.0067
				c0.30597-0.61391,0.61127-1.22849,0.9165-1.84306c2.1189-4.26656,4.34625-5.63696,9.16779-5.63898
				c2.20862-0.00134,4.41718-0.00267,6.62512-0.00401C577.67694,213.20059,576.43842,215.69371,575.19989,218.18683z"/>
		</g>
		<g>
			<path class="st0" d="M561.17303,247.08469c3.98071-8.00758,7.96143-16.01585,11.94214-24.02342
				c-4.33148,0.002-8.66302,0.00336-12.99451,0.00536c-3.43573,6.91232-6.87085,13.82465-10.30658,20.73628
				c-1.16083,2.33514-2.74817,3.28848-5.4776,3.29048c-10.52618,0.00467-21.05231,0.00937-31.57843,0.01407
				c4.2572-8.56461,8.51434-17.12917,12.77155-25.69307c1.80023-3.61853,2.48041-3.87694,6.68604-3.87694
				c1.25861-0.00069,2.51727-0.00134,3.77588-0.00134c3.68475-0.002,5.42072-0.99281,6.87885-3.92711
				c0.58777-1.18433,1.17621-2.36928,1.76471-3.5536c-4.48822,0.00201-8.97699,0.0047-13.46515,0.0074
				c1.93073-3.88834,3.86151-7.77597,5.7923-11.6636c-2.83051,0.00134-5.66107,0.00269-8.49158,0.00404
				c-3.69885,0.00134-5.43414,0.98344-6.87891,3.89229c-1.28668,2.59087-2.57343,5.18176-3.86017,7.77193
				c-2.35657,0.00136-4.71307,0.00201-7.06964,0.0027c-1.23849,2.49312-2.47705,4.98555-3.71555,7.47801
				c2.35721-0.00066,4.71442-0.00134,7.07162-0.0027c-1.45142,2.92024-11.6127,23.36266-13.06479,26.2829
				c-1.15952,2.33246-2.74216,3.28375-5.46359,3.2858c-9.35251,0.004-18.70575,0.00735-28.05829,0.0107
				c4.97217-9.09012,9.94504-18.18024,14.91721-27.2697c-3.43509-0.00266-6.86545,0-10.30051,0
				c-2.40543-0.00066-3.4364,0.78262-4.93942,2.58086c-0.01001-1.9649-0.71564-2.58151-2.6022-2.58286
				c-2.38132-0.00266-4.75995-0.00801-7.14462-0.00601c-11.72314,0.00801-18.27399,3.62584-23.3653,12.93221
				c-2.02383,3.6982-4.04697,7.39636-6.0708,11.09387c-1.26801,2.31906-2.8493,3.265-5.45624,3.265
				c-6.02527,0.00204-12.05118,0.00336-18.07645,0.0047c-6.5488,0.002-9.11087-0.9406-9.83591-4.37299
				c-0.78128-3.69751,0.87766-6.69875,9.64243-12.51047c1.65359-1.09726,3.30786-2.19385,4.96216-3.29045
				c2.30899-1.53177,3.24091-2.3291,2.93228-3.98943c-0.27582-1.48421-1.17429-3.12108-8.3363-3.12039
				c-11.33282,0.00201-22.66568,0.00336-33.99921,0.00467c-3.59708,0-5.2728,0.95399-6.89828,3.92715
				c-3.66605,6.70343-7.33273,13.40688-10.99878,20.11032c-1.26263,2.30699-2.84323,3.24828-5.45688,3.24828
				c-18.18961,0.00066-36.37854,0.00136-54.56747,0.002c0.77661-2.28223,1.55319-4.56447,2.3291-6.84735
				c9.0834,0,18.16684,0,27.2496-0.00069c5.37518,0,7.60519-1.39049,9.54269-5.95364
				c0.86761-2.04254,1.73526-4.08511,2.6022-6.12766c0.65341-1.53848,1.19971-3.72232,0.09573-5.39061
				c-1.28403-1.94014-4.57852-2.96512-9.52725-2.96446c-8.72125,0-17.44318,0.0007-26.16504,0.0007
				c-8.36441,0-12.18109,2.33176-15.11737,9.24474c-1.81094,4.26389-3.62256,8.52844-5.43347,12.79298
				c-1.85446,4.36697-4.79749,5.24464-8.94751,5.24464c-6.23886-0.00066-12.47766-0.00066-18.71582-0.00131
				c0.3923-0.58983,0.78462-1.17963,1.17693-1.76942c3.70287-5.56401,2.99188-11.75464-1.94949-16.98523
				c-4.85237-5.13551-11.29337-6.95116-17.0013-8.53175c-4.85168-0.0007-9.70337-0.00134-14.55435-0.00204
				c-3.33733,6.10159-6.67468,12.20253-10.01135,18.30344c-4.17551,7.63202-8.71251,8.97562-16.71739,8.97498
				c-5.87195,0-11.74326-0.00201-17.6152-0.00336c4.97484-9.09348,9.94902-18.18694,14.92325-27.28041
				c-3.4478-0.00266-6.89091,0-10.33937,0c-2.40543-0.00066-3.4364,0.78262-4.93938,2.58086
				c-0.01004-1.9649-0.71568-2.58151-2.60225-2.58286c-2.36858-0.00266-4.7345-0.00801-7.10646-0.00601
				c-11.7225,0.00801-18.27328,3.62584-23.36531,12.93221c-2.02382,3.6982-4.04695,7.39636-6.07079,11.09387
				c-1.27737,2.33647-2.80644,3.24829-5.45753,3.24693c-8.9482-0.00266-17.89571-0.006-26.84393-0.00935
				c7.58581-13.87016,15.17165-27.74034,22.75745-41.61116c1.33224-2.43555-0.43047-5.40868-3.2068-5.40868
				c-35.53029,0-71.05997,0-106.58961,0c-7.23431,0-10.81198,1.83371-14.23703,7.65878
				c15.36108,0.00735,30.72147,0.01471,46.08255,0.02206c-8.56321,15.651-17.12581,31.30196-25.68906,46.95291
				c4.4219,0,8.84377,0,13.26563,0c8.5619-15.64896,17.1238-31.29791,25.68571-46.94685
				c6.15116,0.00266,12.30227,0.006,18.4534,0.0087c-8.55991,15.64626-17.1198,31.29185-25.6797,46.93816
				c4.4219,0,8.84377,0,13.26562,0c8.55856-15.64426,17.1171-31.28854,25.67635-46.9328
				c6.15112,0.002,12.30223,0.0047,18.45405,0.0067c-7.06495,12.91548-14.13058,25.83098-21.19557,38.74715
				c-0.96805,1.77008-1.90863,4.2431-0.88571,5.967c0.8576,1.44675,3.01398,2.21196,6.23415,2.21196
				c11.65221,0,23.30438,0,34.95659,0c1.71585,0,2.45026-0.55968,3.51875-1.83705c0.00735,1.40057,1.18228,1.83705,2.52393,1.83705
				c20.0387,0,40.07739,0,60.11604,0c11.92468,0,18.26392-3.48462,23.39142-12.85725
				c2.63977-4.82623,5.28015-9.65247,7.92058-14.47939c0.09035,0.01741,0.72369,0.13791,0.81404,0.15532
				c9.47243,1.80289,14.27654,5.31497,14.68491,10.73634c0.16737,2.21866-0.52817,4.23778-2.00972,5.84119
				c-1.76743,1.91133-4.48283,3.01463-7.45059,3.02534c-6.05539,0.02209-8.48222,2.37196-10.83609,7.57845
				c16.96513,0,33.93092,0,50.89673,0c1.71588,0,2.45029-0.55968,3.51877-1.83705c0.00671,1.40057,1.18161,1.83705,2.52325,1.83705
				c25.09387,0,50.18777,0,75.28165,0c5.07932,0,7.28122-1.3403,9.81717-5.97505c2.93832-5.37184,5.87665-10.74374,8.81564-16.11559
				c2.01178-3.67676,4.50623-5.10944,8.89798-5.10944c4.42252-0.00131,8.84573-0.002,13.26828-0.00266
				c-2.23203,1.55853-4.74118,3.5509-6.64987,5.4977c-2.51721,2.58286-4.94742,6.15247-5.38861,10.77116
				c-0.30795,3.22421,0.48135,5.97708,2.2836,7.9594c1.76874,1.94615,4.36697,2.97447,7.51282,2.97447
				c10.31528,0,20.63049,0,30.9451,0c1.71585,0,2.45026-0.55968,3.51874-1.83705c0.00671,1.40057,1.18231,1.83705,2.52325,1.83705
				c21.70569,0,43.41135,0,65.11703,0c1.71521,0,2.45029-0.55968,3.51877-1.83705c0.00671,1.40057,1.18164,1.83705,2.52325,1.83705
				c32.10059,0,64.20184,0,96.30249,0c5.8009,0,8.74469-1.88727,9.84125-6.30847c0.11188-0.45055,0.22363-0.90178,0.33545-1.35231
				C591.52429,247.07129,576.34869,247.07799,561.17303,247.08469z M297.37088,230.93294
				c1.31155-3.75909,4.3476-4.07373,7.08777-4.07373c4.94742,0,9.89481,0,14.8429,0
				c-0.34213,1.00552-0.68356,2.01042-1.02567,3.01529c-1.20303,3.53751-3.92911,3.83408-6.39011,3.83408
				c-5.16095,0-10.32196,0-15.48294,0C296.72552,232.78339,297.04822,231.85815,297.37088,230.93294z M162.41234,241.98665
				c-2.05124,3.74904-4.46068,5.14555-8.89795,5.14287c-2.44629-0.00201-4.89255-0.00331-7.33879-0.00536
				c2.64577-4.83559,5.29152-9.67186,7.93729-14.50749c2.00978-3.67474,4.5029-5.10739,8.88928-5.10739
				c2.44356,0,4.88716,0,7.33072,0C167.69249,232.33551,165.05206,237.16107,162.41234,241.98665z M456.76059,241.98665
				c-2.0513,3.74904-4.46136,5.14555-8.89798,5.14287c-2.44626-0.00201-4.89252-0.00331-7.33878-0.00536
				c2.64575-4.83559,5.29153-9.67186,7.93726-14.50749c2.01047-3.67474,4.5036-5.10739,8.88928-5.10739
				c2.4436,0,4.88718,0,7.33075,0C462.04074,232.33551,459.40033,237.16107,456.76059,241.98665z"/>
		</g>
	</g>
	<g>
		<g>
			<path class="st0" d="M291.39355,170.97438c0-2.22205,0-4.44444,0-6.66682c5.69141,0,11.38278,0,17.07385,0h0.00067
				c5.69141,0,11.38278,0,17.07419,0c0,2.22238,0,4.44478,0,6.66682c-5.69141,0-11.38278,0-17.07419,0h-0.00067
				C302.77634,170.97438,297.08496,170.97438,291.39355,170.97438z"/>
		</g>
		<path class="st0" d="M308.46808,184.78346c3.5882,0,7.17606,0,10.76428,0c0-3.45329,0-6.9066,0-10.35954
			c-3.58823,0-7.17609,0-10.76428,0h-0.00067c-3.58786,0-7.17606,0-10.76392,0c0,3.45294,0,6.90625,0,10.35954
			c3.58786,0,7.17606,0,10.76392,0"/>
		<g>
			<path class="st0" d="M297.70349,160.85835c-0.03143-5.72008-1.52054-11.30321-6.09442-15.10419c5.61932,0,11.23901,0,16.85834,0
				h0.00067c5.61969,0,11.23901,0,16.85867,0c-4.57388,3.80098-6.06332,9.38411-6.09439,15.10419c-3.58823,0-7.17609,0-10.76428,0
				h-0.00067C304.87955,160.85835,301.29135,160.85835,297.70349,160.85835z"/>
		</g>
		<g>
			<path class="st0" d="M269.18878,134.75356c0-1.64075,0-3.28116,0-4.92192c13.09286,0,26.18573,0,39.27863,0h0.00067
				c13.09286,0,26.1861,0,39.27896,0c0,1.64076,0,3.28117,0,4.92192c-13.09286,0-26.1861,0-39.27896,0h-0.00067
				C295.37451,134.75356,282.28165,134.75356,269.18878,134.75356z"/>
		</g>
		<g>
			<path class="st0" d="M272.70355,152.49612c4.58618-0.9826,9.5354-3.5554,12.81656-6.74196c-4.55338,0-9.10641,0-13.65982,0
				C272.14139,148.00148,272.42245,150.24881,272.70355,152.49612z"/>
		</g>
		<g>
			<path class="st0" d="M344.23227,152.49612c-4.58618-0.9826-9.5354-3.5554-12.81656-6.74196c4.55338,0,9.10645,0,13.65982,0
				C344.79443,148.00148,344.51337,150.24881,344.23227,152.49612z"/>
		</g>
		<g>
			<path class="st0" d="M267.86429,119.0363c-4.30542-25.49994-12.61607-52.05148-21.76453-69.51604
				c9.81956,5.33073,20.37482,13.78722,31.66574,25.36982c-4.68387-1.26335-9.36774-2.25518-14.05157-2.97583
				c6.53021,15.44096,11.92514,31.20158,16.82928,47.12206C276.31702,119.0363,272.09048,119.0363,267.86429,119.0363z"/>
		</g>
		<g>
			<path class="st0" d="M349.0712,119.0363c4.30542-25.49994,12.61609-52.05148,21.76453-69.51604
				c-9.81958,5.33073-20.37482,13.78722-31.66574,25.36982c4.68387-1.26335,9.36774-2.25518,14.05157-2.97583
				c-6.53021,15.44096-11.92514,31.20158-16.82928,47.12206C340.61847,119.0363,344.845,119.0363,349.0712,119.0363z"/>
		</g>
		<g>
			<path class="st0" d="M265.02441,127.26566c0-1.66193,0-3.32351,0-4.98544c14.4812,0,28.9621,0,43.44299,0h0.00067
				c14.48123,0,28.96213,0,43.44299,0c0,1.66193,0,3.32351,0,4.98544c-14.48087,0-28.96176,0-43.44299,0h-0.00067
				C293.98651,127.26566,279.50562,127.26566,265.02441,127.26566z"/>
		</g>
		<g>
			<path class="st0" d="M293.82736,46.82518c6.70746-11.5416,12.46411-24.66078,14.64038-38.2499
				c2.17627,13.58913,7.93326,26.7083,14.64038,38.2499c-2.38803-1.07824-4.91882-2.21487-7.72217-3.45944
				c-2.42801-1.07789-3.46014-0.44195-3.37784,2.0605c0.8074,24.51324,4.41132,52.38448,17.20535,73.61006
				c-5.02405,0-10.04773,0-15.07175,0c-2.36105-5.64666-4.25217-11.21988-5.67398-16.71933
				c-1.42148,5.49945-3.31293,11.07267-5.67398,16.71933c-5.02368,0-10.04773,0-15.07141,0
				c12.7937-21.22559,16.39795-49.09682,17.20502-73.61006c0.08264-2.50245-0.94983-3.13839-3.37784-2.0605
				C298.74652,44.61031,296.21573,45.74694,293.82736,46.82518z"/>
		</g>
		<g>
			<path class="st0" d="M265.02441,142.30496c0-1.66193,0-3.3235,0-4.98543c14.4812,0,28.9621,0,43.44299,0h0.00067
				c14.48123,0,28.96213,0,43.44299,0c0,1.66193,0,3.3235,0,4.98543c-14.48087,0-28.96176,0-43.44299,0h-0.00067
				C293.98651,142.30496,279.50562,142.30496,265.02441,142.30496z"/>
		</g>
	</g>
</g>
</svg>
