<svg id="b115111b-6d86-45ee-b149-0fdf578c8255" data-name="Layer 1" xmlns="http://www.w3.org/2000/svg" width="606.70001" height="246.14944" viewBox="0 0 606.70001 246.14944">
  <defs>
    <style>
      .e9936eda-04bf-4fc7-a642-a38827151531 {
        fill: #fff;
      }
    </style>
  </defs>
  <g>
    <g>
      <path class="e9936eda-04bf-4fc7-a642-a38827151531" d="M575.19988,218.18684q-6.49724.004-12.99448.00669.45891-.92086.91651-1.84306c2.11888-4.26656,4.34622-5.637,9.16777-5.639l6.62511-.004Q577.058,214.44715,575.19988,218.18684Z" transform="translate(0 -8.57527)"/>
      <path class="e9936eda-04bf-4fc7-a642-a38827151531" d="M561.173,247.08469q5.97108-12.01137,11.94217-24.02343-6.49722.003-12.99451.00536-5.15358,10.36848-10.30657,20.73628c-1.16087,2.33515-2.74817,3.28849-5.47764,3.29049q-15.78922.007-31.57841.01406,6.38578-12.8469,12.77157-25.69307c1.80019-3.61852,2.48041-3.87693,6.686-3.87693q1.88793-.001,3.77584-.00135c3.68481-.002,5.42077-.99281,6.87887-3.92711q.88163-1.7765,1.76472-3.5536-6.73233.003-13.46515.0074,2.89611-5.83249,5.79227-11.66361l-8.49158.004c-3.69886.00135-5.43412.98346-6.87886,3.8923q-1.9301,3.88629-3.86018,7.77193-3.53484.002-7.06964.0027-1.85777,3.73968-3.71557,7.478,3.53582-.001,7.07164-.0027c-1.45144,2.92024-11.6127,23.36265-13.06479,26.2829a5.35981,5.35981,0,0,1-5.46359,3.28579q-14.0288.006-28.05828.0107,7.45821-13.63518,14.9172-27.2697-5.15263-.004-10.30051,0c-2.40543-.00065-3.43641.78262-4.93941,2.58085-.01-1.9649-.71565-2.5815-2.60222-2.58285q-3.572-.004-7.14463-.006c-11.72314.008-18.274,3.62584-23.3653,12.9322q-3.03575,5.54732-6.07079,11.09388a5.53534,5.53534,0,0,1-5.45623,3.265q-9.03789.00308-18.07644.0047c-6.54883.002-9.11088-.94059-9.83593-4.373-.78127-3.69751.87767-6.69874,9.64245-12.51046q2.48037-1.64589,4.96213-3.29045c2.309-1.53178,3.24092-2.32911,2.9323-3.98943-.27582-1.48421-1.17428-3.12108-8.33631-3.12038q-16.99926.003-33.99921.00466c-3.59707,0-5.2728.954-6.89827,3.92715q-5.49908,10.05516-10.9988,20.11032a5.52961,5.52961,0,0,1-5.45688,3.24828q-27.28439.001-54.56747.002,1.16491-3.42336,2.3291-6.84736,13.62513,0,27.2496-.00069c5.3752,0,7.60521-1.39048,9.5427-5.95364q1.30141-3.06381,2.60222-6.12766c.65341-1.53848,1.19969-3.72232.09574-5.39061-1.284-1.94014-4.57853-2.96511-9.52726-2.96445q-13.08189,0-26.165.00069c-8.36442,0-12.18108,2.33176-15.11738,9.24474q-2.71641,6.39584-5.43347,12.793c-1.85446,4.367-4.79746,5.24465-8.94751,5.24465q-9.35827-.001-18.71581-.00131.58847-.88474,1.17693-1.76942c3.70286-5.564,2.99188-11.75465-1.9495-16.98525-4.85238-5.1355-11.29337-6.95114-17.0013-8.53174q-7.27752-.001-14.55436-.002-5.006,9.15238-10.01133,18.30343c-4.17551,7.632-8.71252,8.97562-16.7174,8.975q-8.80793,0-17.6152-.00335,7.46226-13.6402,14.92325-27.28041-5.17172-.004-10.33938,0c-2.40543-.00065-3.4364.78262-4.93937,2.58085-.01005-1.9649-.71569-2.5815-2.60226-2.58285q-3.55285-.004-7.10646-.006c-11.72249.008-18.27328,3.62584-23.36531,12.9322q-3.03573,5.54732-6.07078,11.09388a5.466,5.466,0,0,1-5.45754,3.24693q-13.4223-.004-26.84392-.00935,11.3787-20.80526,22.75745-41.61117a3.65485,3.65485,0,0,0-3.2068-5.40867H14.237c-7.23432,0-10.812,1.8337-14.237,7.65879l46.08255.02206q-12.84481,23.4765-25.689,46.9529H33.65912l25.68571-46.94685q9.22674.004,18.45339.0087Q64.95837,231.256,52.11852,254.72471H65.38415Q78.222,231.25834,91.0605,207.79192q9.22668.003,18.454.0067Q98.91713,227.17184,88.319,246.54576c-.968,1.77008-1.90864,4.2431-.88571,5.967.8576,1.44674,3.014,2.212,6.23415,2.212H128.624a3.93625,3.93625,0,0,0,3.51874-1.837c.00736,1.40057,1.18229,1.837,2.52393,1.837h60.116c11.92468,0,18.26392-3.48462,23.39142-12.85725q3.95965-7.23934,7.92058-14.47938c.09034.01741.7237.13791.814.15532,9.47242,1.80288,14.27654,5.315,14.68491,10.73634a7.5592,7.5592,0,0,1-2.00973,5.84118,10.1444,10.1444,0,0,1-7.45059,3.02534c-6.05538.02211-8.48223,2.372-10.83609,7.57845H272.194a3.9363,3.9363,0,0,0,3.51879-1.837c.0067,1.40057,1.18159,1.837,2.52323,1.837h75.28165c5.07932,0,7.28122-1.34029,9.81717-5.975q4.40751-8.05777,8.81565-16.11559c2.01177-3.67676,4.50624-5.10944,8.898-5.10944q6.63376-.002,13.26828-.00266a49.20819,49.20819,0,0,0-6.64988,5.49771,17.9392,17.9392,0,0,0-5.3886,10.77116,10.05778,10.05778,0,0,0,2.28358,7.9594,9.80612,9.80612,0,0,0,7.51283,2.97446h30.9451a3.93628,3.93628,0,0,0,3.51875-1.837c.0067,1.40057,1.18228,1.837,2.52323,1.837h65.117a3.937,3.937,0,0,0,3.51878-1.837c.0067,1.40057,1.18163,1.837,2.52324,1.837h96.30249c5.80093,0,8.74467-1.88726,9.84123-6.30847q.16782-.67581.33547-1.35231Q583.93648,247.075,561.173,247.08469ZM297.37089,230.93293c1.31153-3.75908,4.34758-4.07372,7.08775-4.07372h14.84292q-.51321,1.50828-1.02567,3.01529c-1.203,3.5375-3.92911,3.83407-6.39011,3.83407H296.40285Q296.88687,232.3208,297.37089,230.93293ZM162.41234,241.98665c-2.05125,3.749-4.46068,5.14556-8.898,5.14286q-3.66944-.003-7.3388-.00535,3.96867-7.25339,7.9373-14.50749c2.00977-3.67475,4.50289-5.10739,8.88928-5.10739h7.33071Q166.3723,234.74861,162.41234,241.98665Zm294.34825,0c-2.05129,3.749-4.46138,5.14556-8.898,5.14286q-3.66937-.003-7.33875-.00535,3.96859-7.25339,7.93725-14.50749c2.01046-3.67475,4.50358-5.10739,8.88928-5.10739h7.33075Q460.72055,234.74861,456.76059,241.98665Z" transform="translate(0 -8.57527)"/>
    </g>
    <g>
      <path class="e9936eda-04bf-4fc7-a642-a38827151531" d="M291.39356,170.97438v-6.66683h34.14871v6.66683H291.39356Z" transform="translate(0 -8.57527)"/>
      <path class="e9936eda-04bf-4fc7-a642-a38827151531" d="M308.46808,184.78346h10.76427V174.42392H297.70348v10.35954H308.4674" transform="translate(0 -8.57527)"/>
      <path class="e9936eda-04bf-4fc7-a642-a38827151531" d="M297.70348,160.85835c-.03142-5.72008-1.52053-11.30321-6.09441-15.10419h33.71769c-4.57388,3.801-6.06333,9.38411-6.09441,15.10419H297.70348Z" transform="translate(0 -8.57527)"/>
      <path class="e9936eda-04bf-4fc7-a642-a38827151531" d="M269.18878,134.75355v-4.92191H347.747v4.92191H269.18878Z" transform="translate(0 -8.57527)"/>
      <path class="e9936eda-04bf-4fc7-a642-a38827151531" d="M272.70355,152.49613a27.806,27.806,0,0,0,12.81657-6.742H271.86029Z" transform="translate(0 -8.57527)"/>
      <path class="e9936eda-04bf-4fc7-a642-a38827151531" d="M344.23227,152.49613a27.806,27.806,0,0,1-12.81657-6.742h13.65983Z" transform="translate(0 -8.57527)"/>
      <path class="e9936eda-04bf-4fc7-a642-a38827151531" d="M267.86429,119.0363c-4.30543-25.49994-12.61608-52.05147-21.76453-69.516q14.72935,7.9961,31.66573,25.36981a129.61652,129.61652,0,0,0-14.05157-2.97582,493.38418,493.38418,0,0,1,16.8293,47.12205Z" transform="translate(0 -8.57527)"/>
      <path class="e9936eda-04bf-4fc7-a642-a38827151531" d="M349.07119,119.0363c4.30543-25.49994,12.61608-52.05147,21.76453-69.516Q356.10637,57.51636,339.17,74.89007a129.617,129.617,0,0,1,14.05157-2.97582,493.38418,493.38418,0,0,0-16.8293,47.12205Z" transform="translate(0 -8.57527)"/>
      <path class="e9936eda-04bf-4fc7-a642-a38827151531" d="M265.0244,127.26566v-4.98543h86.88668v4.98543H265.0244Z" transform="translate(0 -8.57527)"/>
      <path class="e9936eda-04bf-4fc7-a642-a38827151531" d="M293.82736,46.82518c6.70747-11.5416,12.4641-24.66078,14.64038-38.24991C310.644,22.1644,316.401,35.28358,323.10813,46.82518c-2.388-1.07824-4.91884-2.21487-7.72219-3.45944-2.428-1.0779-3.46012-.442-3.37781,2.0605.80739,24.51323,4.41131,52.38447,17.20534,73.61006H314.14172a123.50845,123.50845,0,0,1-5.674-16.71933,123.46,123.46,0,0,1-5.674,16.71933h-15.0714c12.79369-21.22559,16.39794-49.09683,17.205-73.61006.08266-2.50245-.94981-3.1384-3.37781-2.0605C298.74653,44.61031,296.21574,45.74694,293.82736,46.82518Z" transform="translate(0 -8.57527)"/>
      <path class="e9936eda-04bf-4fc7-a642-a38827151531" d="M265.0244,142.305v-4.98543h86.88668V142.305H265.0244Z" transform="translate(0 -8.57527)"/>
    </g>
  </g>
</svg>
