<?xml version="1.0" encoding="UTF-8" standalone="no"?>
<!-- Generator: Adobe Illustrator 17.1.0, SVG Export Plug-In . SVG Version: 6.00 Build 0)  -->

<svg
        xmlns:dc="http://purl.org/dc/elements/1.1/"
        xmlns:cc="http://creativecommons.org/ns#"
        xmlns:rdf="http://www.w3.org/1999/02/22-rdf-syntax-ns#"
        xmlns="http://www.w3.org/2000/svg"
        xmlns:sodipodi="http://sodipodi.sourceforge.net/DTD/sodipodi-0.dtd"
        xmlns:inkscape="http://www.inkscape.org/namespaces/inkscape"
        version="1.1"
        id="Layer_1"
        x="0px"
        y="0px"
        viewBox="0 0 363.6 159"
        enable-background="new 0 0 363.6 159"
        xml:space="preserve"
        width="82px"
        height="36px"
        inkscape:version="0.48.4 r9939"
        sodipodi:docname="mobile-header-logo.svg"><metadata
     id="metadata11"><rdf:RDF><cc:Work
         rdf:about=""><dc:format>image/svg+xml</dc:format><dc:type
           rdf:resource="http://purl.org/dc/dcmitype/StillImage" /><dc:title></dc:title></cc:Work></rdf:RDF></metadata><defs
     id="defs9" /><sodipodi:namedview
     pagecolor="#ffffff"
     bordercolor="#666666"
     borderopacity="1"
     objecttolerance="10"
     gridtolerance="10"
     guidetolerance="10"
     inkscape:pageopacity="0"
     inkscape:pageshadow="2"
     inkscape:window-width="1453"
     inkscape:window-height="906"
     id="namedview7"
     showgrid="false"
     inkscape:zoom="14.243902"
     inkscape:cx="39.594644"
     inkscape:cy="19.534392"
     inkscape:window-x="65"
     inkscape:window-y="24"
     inkscape:window-maximized="0"
     inkscape:current-layer="Layer_1" /><path
     fill-rule="evenodd"
     clip-rule="evenodd"
     fill="#261F1F"
     d="M173.7,78h16.2v4h-16.2V78z M175.7,83.6h12.3v8.3h-12.3V83.6z   M157.7,59.4h48.3v2h-48.3V59.4z M155.1,63.2h53.4v2h-53.4V63.2z M155,55.7h53.4v2H155V55.7z M190.2,69.5c-2.7,2.4-2.7,6.8-2.7,6.8  h-5.8H176c0,0,0-4.4-2.7-6.8c-1.9-1.7-4.2-2.1-4.2-2.1c-1.5-0.3-1.5-0.5-1.5-0.6h13h15.1c0,0,0,0.3-1.5,0.6  C194.4,67.5,192.1,67.8,190.2,69.5z M157.9,66.9h5.8c0,3.4-2.2,5-5.8,4.2V66.9z M178.4,11.5c2.3-4.6,2.8-11.4,3.4-11.5  c0.6,0.1,1,7,3.3,11.5c2.2,4.3,6.9,8,6.6,8.4c-0.3,0.5-2.9-0.8-4.2-1.4c-2.1-1-3.8-1.7-3.8-1.7s-0.8,10.9,1.8,21  c2.2,8.2,7.4,15.8,7.9,16.4h-6.7l-0.6-1c-1.8-3.2-3.1-5.9-4.3-10.7c-1.3,4.7-2.6,7.5-4.4,10.7l-0.6,1h-6.7c0.5-0.7,5.7-8.2,7.9-16.4  c2.7-10.1,1.8-21,1.8-21s-1.7,0.8-3.8,1.7c-1.3,0.6-3.9,1.9-4.2,1.4C171.6,19.5,176.3,15.8,178.4,11.5z M157.7,54.2  c0-0.8-0.5-11.9-3-20.6c-2.8-9.5-8.6-15.2-8.2-15.8c0.4-0.5,5.1,0.4,8.6,2.9c3.8,2.6,7.5,6.9,7.2,7.2c-0.2,0.2-1.4-0.9-3.8-1.7  c-2.4-0.9-3.5-0.7-3.5-0.7s4.1,6.7,6.1,14c1.7,6.1,2.6,14,2.6,14.7H157.7z M205.9,54.2c0-0.8,0.4-11.9,3-20.6  c2.8-9.5,8.6-15.2,8.2-15.8c-0.3-0.5-5.1,0.4-8.6,2.9c-3.8,2.6-7.5,6.9-7.2,7.2c0.2,0.2,1.4-0.9,3.7-1.7c2.5-0.9,3.5-0.7,3.5-0.7  s-4.1,6.7-6.1,14c-1.7,6.1-2.6,14-2.6,14.7H205.9z M205.7,66.9h-5.8c0,3.4,2.2,5,5.8,4.2V66.9z"
     id="path3"
     style="fill:#ffffff;fill-opacity:1" /><path
     fill="#261F1F"
     d="M267.4,126.3l-5.1,13.1h9.8L267.4,126.3z M259.5,146.5c-0.8,1.9-1.7,4.4-1.7,6.4c0,2,1.9,2.4,3.4,2.7  l2.4,0.2v1.9h-14.9v-1.8c3-0.6,4.2-1.3,5.5-4c0.4-0.8,0.8-1.8,1.2-3l1-2.5l9.5-24l-0.9-2.6h6.5l9.9,26.6l1.7,4.6c0.4,1,1,3,1.9,3.8  c0.7,0.7,1.8,0.9,4.1,1v1.9h-18v-1.9c3.2-0.1,5.6-0.2,5.6-2.3c0-1.2-0.5-3-1.2-4.5l-0.9-2.6l-1.5-4.4h-12L259.5,146.5z M220.2,122.7  c-1.3,0-2.7,0.2-3.5,0.2v17.1h3.6c1.8,0,3.5-0.2,5.2-1c1.9-1,3.5-3.1,3.5-7.4C229,124.6,223.9,122.7,220.2,122.7z M216.7,146.5v3.7  c0,4.8,0.5,5.7,3.9,5.7h2.7v1.9h-19.1v-1.9c5.6,0.2,6-1.3,6-4.6v-4.8v-19c0-3.8-0.6-3.8-6-4.1v-1.9c3.7-0.4,8.6-0.9,15-0.9  c2.9,0,16.5,0,16.5,10.7c0,4.3-2,7-5.7,8.8c-0.8,0.4-1.6,0.6-2.2,0.9c0.7,0.7,1.3,1.3,1.9,2.1c0.5,0.8,1.1,1.8,1.9,3.5l1.2,2.6  c2.8,5.7,4.3,6.8,7.4,7.4v1.9c-5.4,0.2-9.7-1.8-13.2-7.2c-0.5-0.7-1.6-2.7-2.7-4.7c-1-1.9-2.1-3.7-2.5-4.4h-5.1V146.5z M84.2,126.3  l-5.1,13.1h9.8L84.2,126.3z M76.3,146.5c-0.7,1.9-1.6,4.4-1.6,6.4c0,2,1.8,2.4,3.4,2.7l2.3,0.2v1.9H65.6v-1.8c3.1-0.6,4.2-1.3,5.5-4  l1.2-3l1-2.5l9.6-24l-0.9-2.6h6.5l9.9,26.6l1.7,4.6c0.4,1,1,3,1.9,3.8c0.8,0.7,1.8,0.9,4.2,1v1.9H88v-1.9c3.1-0.1,5.6-0.2,5.6-2.3  c0-1.2-0.6-3-1.2-4.5l-0.9-2.6l-1.6-4.4H78L76.3,146.5z M357.1,146.5v3.9c0,4.5,1.2,5.2,6.5,5.5v1.9h-18.9v-1.9  c4.5-0.3,4.6-0.4,5.1-1.3c0.9-1.4,0.9-5.9,0.9-7.7v-18.5c0-4.5-0.9-5.1-6.3-5.5V121h18.9v1.9c-6.2,0.2-6.3,1.1-6.3,7.2V146.5z   M316.2,146.5v4.3c0,2.5,0.2,3.6,1.1,4.2c0.5,0.3,1.1,0.5,2,0.6c0.9,0.1,2.1,0.2,3.7,0.2v1.9h-20.3v-1.9c1.8-0.1,3-0.2,3.9-0.2  c0.9-0.2,1.6-0.3,2-0.6c0.8-0.5,1-1.6,1-3.8v-4.7v-23.1h-6.1c-2.4,0-3.4,0.2-4,0.6c-0.5,0.3-0.8,0.7-1.1,1.5c-0.3,0.8-0.6,2-1.3,4.1  h-1.8l0.8-9.7h1.5c0.6,1,1.1,1.1,2.1,1.2h1.6h23.4c2.7,0,3-0.2,3.4-1.2h1.5l0.9,9.7h-1.9c-1.3-6.1-2.5-6.2-5.6-6.2h-6.8V146.5z   M170.5,146.5v5.5c0,3.4,0.2,3.4,3.6,3.4h6.4c3.7,0,5.6-0.6,7.2-7h2l-0.9,9.2H158v-1.9c5.5,0.2,5.9-1.3,5.9-4.6v-4.8v-18.9  c0-4.1-1.1-4.8-5.9-4.7V121h29.2l0.4,8.4h-1.9c-1-5.6-2.3-6-6.3-6h-9v14.6h8.9c3,0,3.8,0,4.3-4.5h2V145h-2c-0.2-4.6-0.8-4.8-4.9-4.8  h-8.3V146.5z M142.3,146.5c0.1,0.6,0.2,1.3,0.2,1.9c0,5.6-4.5,10.6-11.5,10.6c-1.1,0-1.8-0.1-2.8-0.2c-1-0.2-2.3-0.6-4.5-1.2  c-0.4-0.2-0.7-0.2-1-0.2c-0.7,0-0.9,0.2-0.9,0.8H120l-1.1-9.5h2c2.5,7.2,7.7,8.1,9.4,8.1c2.3,0,6.9-1.5,6.9-6.3  c0-1.6-0.5-2.9-1.4-4.1c-1.5-2-4.2-3.6-7.9-5.9c-7.5-4.6-8.9-8-8.9-11.3c0-5.5,5-9.5,10.1-9.5c2,0,3.8,0.3,5.4,0.9  c0.5,0.2,2.2,0.9,2.5,0.9c0.2,0,0.5-0.2,1-0.8h1.8l0.9,8.8h-2c-1.8-4.7-4.7-7.6-8.8-7.6c-3.2,0-5.6,2.4-5.6,5.1c0,1.7,0.5,2.8,2,4.2  c0.8,0.7,1.9,1.6,3.3,2.5l5.3,3.5c1.7,1.1,3.3,2.2,4.6,3.7C140.8,142.5,141.9,144.3,142.3,146.5z M9.9,146.5L9.5,151  c-0.1,0.4-0.1,1.6-0.1,2.5c0,2.3,3.2,2.3,5.2,2.3v1.9H0v-1.9c6.3-0.3,6.3-0.6,6.8-7l0.2-2.4l1.6-19.7c0.2-3.5-0.4-3.5-5.2-3.8V121  h12.4l11,25.4l0.8,1.9l0.9-1.9L39.6,121h12.2v1.9c-1.5,0-2.4,0-3.2,0.1c-0.7,0.2-1.2,0.3-1.5,0.6c-0.6,0.6-0.7,1.9-0.5,4.7l1.2,18.2  l0.2,3.3c0.3,4.8,0.4,6.3,5.9,6.1v1.9H36v-1.9c1.3-0.1,3.2-0.2,4.4-0.6c1-0.4,1.6-1,1.6-2.3c0-0.5-0.2-2.2-0.2-2.7l-0.2-3.7l-1.2-20  l-8.8,20l-4.9,11.3h-1.8l-4.8-11.3l-8.5-20L9.9,146.5z"
     id="path5"
     style="fill:#ffffff;fill-opacity:1" /></svg>